<?xml version="1.0" encoding="UTF-8"?>
<svg id="Layer_1" data-name="Layer 1" xmlns="http://www.w3.org/2000/svg" viewBox="0 0 291.6 82.4">
  <defs>
    <style>
      .cls-1 {
        fill: #215eac;
      }

      .cls-1, .cls-2 {
        stroke-width: 0px;
      }

      .cls-2 {
        fill: #fff;
      }
    </style>
  </defs>
  <polygon class="cls-1" points="0 0 0 71.8 147.8 82.4 291.6 71.8 291.6 0 0 0"/>
  <path class="cls-2" d="m261.29,60.02l-1.1,1.1c.85.87,1.86,1.15,3.17,1.15,1.82,0,3.22-.95,3.22-2.64,0-.77-.21-1.4-.67-1.84-.37-.34-.87-.56-1.66-.67l-1.03-.15c-.35-.05-.63-.18-.81-.34-.18-.17-.26-.4-.26-.62,0-.6.44-1.1,1.34-1.1.57,0,1.23.07,1.78.6l1.07-1.06c-.74-.72-1.61-1.01-2.81-1.01-1.88,0-3.03,1.09-3.03,2.64,0,.73.21,1.29.62,1.71.39.38.94.61,1.68.72l1.05.15c.4.06.6.15.77.31.18.17.27.43.27.73,0,.7-.54,1.07-1.54,1.07-.81,0-1.55-.18-2.1-.73m-12.39-5c.74,0,1.23.48,1.23,1.15s-.49,1.15-1.23,1.15h-1.6v-2.29h1.6Zm.11-1.51h-3.41v8.69h1.7v-3.47h1.22l1.7,3.47h1.96l-1.94-3.75c.84-.31,1.59-1.06,1.59-2.28,0-1.45-1.05-2.66-2.82-2.66m-12.94,0h-6.24v1.51h2.27v7.18h1.7v-7.18h2.27v-1.51Zm-12.75,0h-1.51v8.69h1.7v-5.33l3.44,5.33h1.51v-8.69h-1.7v5.32l-3.44-5.32Zm-15.21,0h-1.76l2.87,8.69h1.27l2.88-8.69h-1.77l-1.75,5.66-1.75-5.66Zm-5.72,1.51c.59,0,.98.18,1.27.54.32.39.37.94.37,2.26s-.05,1.94-.37,2.33c-.29.35-.68.54-1.27.54h-1.28v-5.66h1.28Zm.16-1.51h-3.14v8.69h3.14c.9,0,1.72-.26,2.29-.83.98-.98.88-2.25.88-3.55s.1-2.5-.88-3.48c-.57-.57-1.39-.83-2.29-.83m-9.11,5.72l1.1-3.16,1.06,3.16h-2.16Zm.39-5.72l-3.16,8.69h1.77l.52-1.54h3.09l.51,1.54h1.77l-3.17-8.69h-1.33Zm-6.7,0h-5.72v8.69h5.72v-1.51h-4.03v-2.11h3.43v-1.51h-3.43v-2.04h4.03v-1.51Zm-7.2,0h-5.72v8.69h1.7v-3.53h3.43v-1.51h-3.43v-2.14h4.03v-1.51Zm-7.75,0h-1.7v8.69h1.7v-8.69Zm-7.02,0h-1.7v8.69h5.64v-1.51h-3.94v-7.18Zm-6.76,1.51c.59,0,.98.18,1.27.54.32.39.37.94.37,2.26s-.05,1.94-.37,2.33c-.29.35-.68.54-1.27.54h-1.28v-5.66h1.28Zm.16-1.51h-3.14v8.69h3.14c.9,0,1.72-.26,2.29-.83.98-.98.88-2.25.88-3.55s.1-2.5-.88-3.48c-.57-.57-1.39-.83-2.29-.83m-12.18,0h-1.7v8.69h1.7v-8.69Zm-17.01,0h-5.72v8.69h5.72v-1.51h-4.03v-2.11h3.43v-1.51h-3.43v-2.04h4.03v-1.51Zm-12.89,0h-1.51v8.69h1.7v-5.33l3.44,5.33h1.51v-8.69h-1.7v5.32l-3.44-5.32Zm-9.92,1.51c.74,0,1.23.48,1.23,1.15s-.49,1.15-1.23,1.15h-1.6v-2.29h1.6Zm.11-1.51h-3.41v8.69h1.7v-3.47h1.22l1.7,3.47h1.96l-1.94-3.75c.84-.31,1.59-1.06,1.59-2.28,0-1.45-1.05-2.66-2.82-2.66m-9.37,5.72l1.1-3.16,1.06,3.16h-2.16Zm.39-5.72l-3.16,8.69h1.77l.52-1.54h3.09l.51,1.54h1.77l-3.17-8.69h-1.33Zm-22.48,6.1c0-.62.35-.96.88-1.33l1.73,2.04c-.4.35-.78.51-1.29.51-.73,0-1.32-.5-1.32-1.22m1.7-3.38s-.24.17-.37.24c-.31-.35-.57-.66-.57-.98,0-.4.24-.71.72-.71.45,0,.72.31.72.71,0,.31-.22.54-.5.73m-3.23,3.41c0,1.64.95,2.64,2.87,2.64,1.24,0,1.84-.51,2.25-.83l.63.76h2.01l-1.56-1.84c.61-.68.87-1.57.93-2.7h-1.5c-.02.62-.16,1.15-.44,1.53l-1.46-1.73c.22-.15.62-.45.62-.45.54-.39.89-.84.89-1.51,0-1.18-.85-2.05-2.22-2.05-1.45,0-2.32.84-2.32,2.03,0,.83.51,1.44.87,1.84-.76.5-1.56,1.22-1.56,2.33m-15.26-6.13h-1.7v8.69h5.64v-1.51h-3.94v-7.18Zm-7.66,5.72l1.1-3.16,1.06,3.16h-2.16Zm.39-5.72l-3.16,8.69h1.77l.52-1.54h3.09l.51,1.54h1.77l-3.17-8.69h-1.33Zm-8.87,0h-1.7v8.69h1.7v-3.64h2.94v3.64h1.7v-8.69h-1.7v3.55h-2.94v-3.55Zm-11.68-30.27c0,2.54-1.55,4.12-4.71,5.86v-6.3c0-1.82.18-2.46,2.02-2.46s2.69.93,2.69,2.91m6.26-1.17c0-3.63-2.08-4.52-5.94-4.52h-12.45v1.13c1.34.32,1.4,1.49,1.4,4.16v16.35c0,2.67-.06,3.84-1.4,4.16v1.13h9.5v-1.13c-2.08-.24-2.08-1.54-2.08-4.68v-6.34c7.31-2.26,10.96-5.69,10.96-10.26m2.64,31.44h-1.77l-1.35,5.48-1.59-5.48h-1.27l-1.59,5.48-1.34-5.48h-1.77l2.32,8.69h1.42l1.6-5.27,1.6,5.27h1.42l2.33-8.69Zm10.28-30.35c0,2.79-1.61,4.93-4.56,5.82v-6.54c0-1.53.06-2.22,2.02-2.22,1.73,0,2.54.89,2.54,2.95m-.41,21.32h9.09v-1.13c-1.2-.24-1.58-1.66-2.25-3.96-1.29-4.36-2.63-7.95-4.42-10.66,2.63-2.18,3.95-4.04,3.95-6.86,0-2.99-1.4-4.32-4.24-4.32h-13.71v1.13c1.34.32,1.4,1.49,1.4,4.16v16.35c0,2.67-.06,3.84-1.4,4.16v1.13h8.83v-1.13c-1.34-.32-1.4-1.5-1.4-4.16v-7.15l1.11-.49c2.84,4,4.03,8.64,4.03,10.14,0,.81-.26,1.21-.99,1.66v1.13Zm9.62,0h8.83v-1.13c-1.34-.32-1.4-1.5-1.4-4.16v-16.35c0-2.67.06-3.84,1.4-4.16v-1.13h-8.83v1.13c1.34.32,1.4,1.49,1.4,4.16v16.35c0,2.67-.06,3.84-1.4,4.16v1.13Zm4.76,17.72h5.72v-1.51h-4.03v-2.11h3.43v-1.51h-3.43v-2.04h4.03v-1.51h-5.72v8.69Zm19.53-17.72h5.73v-1.13c-1.34-.32-1.4-1.5-1.4-4.16v-16.35c0-2.67.06-3.84,1.4-4.16v-1.13h-5.32v1.13c1.34.32,1.4,1.49,1.4,4.16v4.12l-3.77-5.77c-.35-.52-.53-1.13-.53-1.41,0-.4.21-.81.67-1.09v-1.13h-10.96v1.13c1.34.32,1.4,1.49,1.4,4.16v16.35c0,2.67-.06,3.84-1.4,4.16v1.13h5.73v-1.13c-1.69-.16-1.84-1.66-1.84-4.68v-16.07l10.7,16.56v.93c0,2.26-.21,3.19-1.81,3.27v1.13Zm8.51,9.03l-2.26,4.7-2.27-4.7h-1.67v8.69h1.7v-5.07l1.67,3.3h1.15l1.66-3.3v5.07h1.7v-8.69h-1.67Zm16.98-8.61l2.22-8.81-.76-.28c-1.2,3.84-3.1,5.74-5.7,5.74-4.03,0-6.99-5.21-6.99-11.95,0-5.33,2.13-8.8,5.26-8.8,2.51,0,4.09,2.26,5.91,7.03l.99-.24-1.64-10.82c-.79.4-1.46.65-2.05.65-1.02,0-2.57-.4-4.59-.4-6.78,0-10.23,4.32-10.23,12.68,0,9.01,4.45,15.47,11.31,15.47,1.81,0,3.36-.61,4.62-.61.53,0,1.08.12,1.64.36m4.18,8.61h-1.7v8.69h1.7v-8.69Zm15.43-8.57l2.49-10.99-.76-.32c-1.93,5.53-4.33,8.16-7.54,8.16-2.11,0-2.54-.97-2.54-3.84v-8.88h1.49c2.43,0,3.42,1.37,4.15,4.72l.59-.32-1.26-10.3h-.59c-.23,2.71-.91,3.11-2.75,3.11h-1.64v-2.79c0-2.3.23-3.19,2.02-3.19,3.16,0,5.38,2.02,6.55,5.98l.76-.24-1.64-9.29c-.32.57-.88.81-1.67.81h-13.45v1.13c1.34.32,1.4,1.49,1.4,4.16v16.35c0,2.67-.06,3.84-1.4,4.16v1.13h14.24c.53,0,1.02,0,1.55.45m6.32,8.57h-1.77l2.32,8.69h1.42l1.6-5.27,1.6,5.27h1.42l2.33-8.69h-1.77l-1.35,5.48-1.59-5.48h-1.27l-1.59,5.48-1.34-5.48Zm4.31-22.09c0,1.25-.96,5.9-2.56,5.9-.87,0-.87-.84-.87-1.17,0-1.07.83-5.8,2.63-5.8.43,0,.8.24.8,1.07m1.98,1.02c0-2.24-1.98-2.58-2.61-2.58-2.62,0-4.77,2.88-4.77,5.45,0,1.61,1.3,2.49,2.66,2.49,2.66,0,4.72-2.88,4.72-5.37m7.19-5.3c0-.34-.16-1.34-1.63-1.34-2.09,0-3.2,1.9-3.77,4.18h-1.21l-.15.7h1.21c-.33,1.35-1.03,4.58-1.46,6.56-.5,2.28-.73,3.16-1.53,3.16-.18,0-.27-.1-.27-.2,0-.08.27-.34.27-.69,0-.6-.61-.82-.83-.82-.27,0-.85.3-.85.82,0,1,.75,1.4,1.61,1.4,2.88,0,3.61-3.53,5-10.24h1.49l.15-.7h-1.53l.3-1.19c.17-.67.65-2.5,1.51-2.5.13,0,.28.05.28.23,0,.1-.27.35-.27.67,0,.49.37.84.8.84.4,0,.86-.25.86-.89m1.94,26.36h-1.7v8.69h5.64v-1.51h-3.94v-7.18Zm27.14-34.79v-1.13h-5.96v1.13c1.08.12,1.64.89,1.64,2.14,0,.52-.06,1.29-.17,2.14l-2.19,14.63-2.34-14.55c-.23-1.45-.26-2.34-.26-2.42,0-1,.35-1.57,1.2-1.93v-1.13h-8.39v1.13c.99.32,1.46.81,1.46,1.93,0,.69-.2,1.49-.32,2.34l-2.04,14.63-1.99-14.55c-.12-.89-.24-1.66-.24-2.26,0-1.2.32-1.69,1.23-2.09v-1.13l-8.77-.04v1.17c1.11.32,1.49,1.45,1.81,3.91l2.34,17.13c.15,1.01.29,1.73.29,2.21,0,.81-.29,1.25-.82,1.37v1.13h8.51v-1.13c-.44-.08-.61-.48-.61-1.25,0-.16.09-.76.23-1.81l1.49-10.57,1.52,10.04c.17,1.13.23,1.85.23,2.21,0,.85-.21,1.21-.79,1.37v1.13h8.77v-1.13c-.5-.12-.79-.65-.79-1.33,0-.32.12-.88.24-1.73l2.63-17.09c.38-2.54.52-3.99,2.11-4.48m20.78,24.63s.02,0,.03-.01c-1.31-.34-1.37-1.51-1.37-4.15v-16.35c0-2.67.06-3.84,1.4-4.16v-1.13h-8.83v1.13c1.34.32,1.4,1.49,1.4,4.16v2.1h-4.94v-2.1c0-2.67.06-3.84,1.4-4.16v-1.13h-8.83v1.13c1.34.32,1.4,1.49,1.4,4.16v16.35c0,2.67-.06,3.84-1.4,4.16v1.13h8.83v-1.13c-1.35-.32-1.4-1.5-1.4-4.16v-11.47h4.94v11.47c0,2.67-.06,3.84-1.4,4.16v1.13h8.77v-1.13Zm11.64-10.1c-1.2-1.09-2.54-1.7-4.18-1.94l2.05-7.75,2.13,9.69Zm.32,11.23h9.97v-1.13c-1.26-.08-1.67-1.45-2.31-4.04l-4.44-18.13c-.09-.4-.17-.81-.17-1.29,0-.44.26-.93.79-1.21v-1.13h-8.89v1.13c.56.32.79.73.79,1.33,0,.36-.06.77-.18,1.17l-4.5,17.12c-.73,2.77-1.23,4.54-2.99,5.04.01,0,.02,0,.03.01v1.13h6.55v-1.13c-.99,0-1.52-.65-1.52-1.9,0-.65.15-1.57.44-2.75l1.14-4.44c4.18.36,6.78,3.55,6.78,6.82,0,1.33-.44,2.02-1.49,2.26v1.13Zm4.44,17.72h5.72v-1.51h-4.03v-2.11h3.43v-1.51h-3.43v-2.04h4.03v-1.51h-5.72v8.69Zm21.41-17.26l2.22-10.99-.67-.32c-1.64,5.45-3.83,8.16-6.55,8.16-2.28,0-2.34-1.62-2.34-4.56v-14.38c0-2.59.12-3.76,1.55-4.16v-1.13h-8.98v1.13c1.35.32,1.4,1.49,1.4,4.16v16.35c0,2.67-.06,3.84-1.4,4.16v1.13h13.42c.47,0,.88,0,1.35.45m4.69,15.82c-.92,0-1.5-.6-1.5-1.6v-5.65h-1.7v5.71c0,1.84,1.42,3.05,3.2,3.05s3.2-1.21,3.2-3.05v-5.71h-1.68v5.65c0,1-.6,1.6-1.51,1.6m15.02-15.82l2.48-10.99-.76-.32c-1.93,5.53-4.33,8.16-7.54,8.16-2.11,0-2.54-.97-2.54-3.84v-8.88h1.49c2.43,0,3.42,1.37,4.15,4.72l.58-.32-1.26-10.3h-.59c-.23,2.71-.91,3.11-2.75,3.11h-1.64v-2.79c0-2.3.24-3.19,2.02-3.19,3.16,0,5.38,2.02,6.55,5.98l.76-.24-1.64-9.29c-.32.57-.88.81-1.67.81h-13.45v1.13c1.35.32,1.4,1.49,1.4,4.16v16.35c0,2.67-.06,3.84-1.4,4.16v1.13h14.24c.53,0,1.03,0,1.55.45m-1.95,17.26h5.72v-1.51h-4.03v-2.11h3.43v-1.51h-3.43v-2.04h4.03v-1.51h-5.72v8.69Zm12.33-39.2c0-1.57,1.05-2.83,2.72-2.83,2.1,0,4.12,1.98,5.5,5.69l.82-.16-.61-8.56c-.53.4-.97.65-1.38.65-1.61,0-3.57-.81-5.88-.81-4.74,0-7.43,3.47-7.43,8.4,0,3.92,1.61,6.22,4.85,7.67l2.34,1.05c2.34,1.05,3.8,1.45,3.8,4.08,0,2.22-1.34,3.59-3.89,3.59-3.63,0-6.02-2.95-6.64-8.28l-.79.04.5,11.39c.59-.57,1.06-.85,1.64-.85,1.14,0,3.13.98,6.08.98,5.79,0,9.39-4.09,9.39-9.82,0-4.81-2.11-6.46-6-8.16l-2.45-1.05c-1.64-.73-2.57-1.33-2.57-3.03"/>
</svg>